<svg xmlns="http://www.w3.org/2000/svg" xmlns:xlink="http://www.w3.org/1999/xlink" width="1080" zoomAndPan="magnify" viewBox="0 0 810 809.999993" height="1080" preserveAspectRatio="xMidYMid meet" version="1.0"><path fill="#c45b52" d="M 434.960938 222.191406 C 445.652344 369.863281 402.257812 460.808594 402.257812 460.808594 L 420.945312 542.527344 L 401.320312 606.03125 C 401.320312 606.03125 182.359375 711.875 108.539062 692.265625 C 34.722656 672.652344 37.523438 570.230469 77.390625 458.160156 C 128.636719 314.113281 93.898438 343.601562 95.769531 210.050781 C 97.636719 76.5 184.472656 38.011719 206.964844 30.738281 C 302.273438 -0.0820312 421.257812 32.917969 434.960938 222.191406 Z M 434.960938 222.191406 C 445.652344 369.863281 417.523438 460.128906 417.523438 460.128906 L 420.945312 542.527344 L 401.320312 606.03125 C 401.320312 606.03125 182.359375 711.875 108.539062 692.265625 C 34.722656 672.652344 37.523438 570.230469 77.390625 458.160156 C 128.636719 314.113281 93.898438 343.601562 95.769531 210.050781 C 97.636719 76.5 184.472656 38.011719 206.964844 30.738281 C 302.273438 -0.0820312 421.257812 32.917969 434.960938 222.191406 Z M 434.960938 222.191406 " fill-opacity="1" fill-rule="nonzero"/><path fill="#0e7658" d="M 356.269531 390.710938 L 450.613281 359.601562 L 487.839844 380.769531 C 487.839844 380.769531 504.523438 360.5625 522.496094 344.847656 C 741.992188 456.460938 726.910156 546.585938 679.738281 572.566406 C 632.566406 598.546875 532.660156 541.136719 532.660156 541.136719 C 532.660156 541.136719 510.839844 783.289062 504.097656 794.835938 C 495.300781 809.90625 208.972656 797.722656 202.554688 797.722656 C 196.136719 797.722656 198.707031 775.910156 198.707031 775.910156 C 198.707031 775.910156 136.5625 795.15625 113.5625 743.839844 C 85.320312 673.277344 109.140625 475.632812 144.367188 423.746094 C 168.757812 387.824219 239.460938 373.710938 239.460938 373.710938 Z M 356.269531 390.710938 L 450.613281 359.601562 L 487.839844 380.769531 C 487.839844 380.769531 502.261719 359.398438 520.230469 343.683594 C 739.730469 455.300781 726.910156 546.585938 679.738281 572.566406 C 632.566406 598.546875 532.660156 541.136719 532.660156 541.136719 C 532.660156 541.136719 510.839844 783.289062 504.097656 794.835938 C 495.300781 809.90625 208.972656 797.722656 202.554688 797.722656 C 196.136719 797.722656 198.707031 775.910156 198.707031 775.910156 C 198.707031 775.910156 136.5625 795.15625 113.5625 743.839844 C 75.816406 660.730469 92.851562 479.59375 136.128906 426.3125 C 163.503906 392.609375 239.460938 373.710938 239.460938 373.710938 Z M 356.269531 390.710938 " fill-opacity="1" fill-rule="nonzero"/><path fill="#feac7c" d="M 446.171875 359.167969 C 446.171875 359.167969 420.011719 398.390625 364.570312 408.351562 C 282.777344 423.050781 241.226562 372.863281 241.226562 372.863281 C 241.226562 372.863281 296.667969 357.296875 297.914062 349.203125 C 298.84375 343.15625 289.6875 323.550781 285 314.027344 C 237.832031 312.839844 206.496094 278.695312 206.496094 278.695312 C 191.546875 301.574219 143.890625 276.359375 145.761719 247.875 C 147.628906 219.390625 178.464844 226.863281 178.464844 226.863281 C 220.980469 217.210938 279.226562 123.820312 279.847656 102.027344 C 293.082031 106.566406 304.566406 112.113281 314.574219 118.265625 C 330.734375 113.355469 358.171875 109.324219 383.257812 126.308594 C 420.410156 151.464844 429.285156 213.472656 378.339844 246.421875 C 376.109375 256.488281 372.144531 266.753906 365.6875 276.203125 L 391.988281 329.875 C 394.402344 334.800781 398.453125 338.738281 403.445312 341.015625 Z M 446.171875 359.167969 C 446.171875 359.167969 420.011719 398.390625 364.570312 408.351562 C 282.777344 423.050781 241.226562 372.863281 241.226562 372.863281 C 241.226562 372.863281 296.667969 357.296875 297.914062 349.203125 C 298.84375 343.15625 289.6875 323.550781 285 314.027344 C 237.832031 312.839844 206.496094 278.695312 206.496094 278.695312 C 191.546875 301.574219 143.890625 276.359375 145.761719 247.875 C 147.628906 219.390625 178.464844 226.863281 178.464844 226.863281 C 220.980469 217.210938 279.226562 123.820312 279.847656 102.027344 C 293.082031 106.566406 304.566406 112.113281 314.574219 118.265625 C 330.734375 113.355469 358.171875 109.324219 383.257812 126.308594 C 420.410156 151.464844 429.285156 213.472656 378.339844 246.421875 C 376.109375 256.488281 372.144531 266.753906 365.6875 276.203125 L 391.988281 329.875 C 394.402344 334.800781 398.453125 338.738281 403.445312 341.015625 Z M 446.171875 359.167969 " fill-opacity="1" fill-rule="nonzero"/><path fill="#892f2c" d="M 439.832031 405.738281 L 382.632812 253.058594 C 416.871094 235.21875 433.21875 194.261719 419.335938 157.199219 C 404.3125 117.105469 359.621094 96.773438 319.507812 111.789062 C 279.394531 126.800781 259.050781 171.46875 274.070312 211.5625 C 287.957031 248.625 327.199219 268.777344 364.742188 259.753906 L 421.765625 411.96875 C 423.535156 416.683594 428.566406 419.640625 433.421875 418.289062 C 438.894531 416.765625 441.78125 410.9375 439.832031 405.738281 Z M 288.675781 206.597656 C 276.910156 175.199219 295.195312 135.84375 326.609375 124.089844 C 358.023438 112.332031 393.351562 131.121094 405.113281 162.519531 C 416.878906 193.917969 400.234375 231.660156 368.820312 243.417969 C 337.40625 255.171875 300.4375 237.992188 288.675781 206.597656 Z M 288.675781 206.597656 " fill-opacity="1" fill-rule="nonzero"/><path fill="#feac7c" d="M 378.214844 554.039062 C 383.863281 547.828125 377.085938 537.664062 370.871094 535.972656 C 374.824219 531.453125 363.527344 524.113281 356.179688 524.113281 C 359.570312 520.160156 346.578125 512.820312 333.015625 516.207031 C 319.457031 519.597656 299.121094 524.113281 297.425781 530.324219 C 295.730469 536.535156 283.867188 602.601562 283.867188 602.601562 C 283.867188 602.601562 301.027344 630.003906 312.863281 654.285156 C 317.949219 657.671875 342.644531 641.957031 347.125 623.152344 C 350.109375 610.636719 349.652344 583.871094 351.660156 582.839844 C 362.980469 577.015625 371.625 577.714844 371.625 577.714844 C 371.625 577.714844 367.683594 592.730469 374.660156 595.691406 C 377.59375 596.9375 391.695312 589.078125 387.742188 562.539062 C 387.742188 562.539062 386.125 556.300781 378.214844 554.039062 Z M 516.3125 345.386719 L 485.417969 383.449219 C 485.417969 383.449219 472.195312 386.332031 458.085938 375.355469 C 445.785156 365.78125 425.617188 345.9375 425.617188 345.9375 C 425.617188 345.9375 412.925781 351.421875 401.554688 357.375 L 404.125 365.316406 C 404.125 365.316406 397.949219 366.601562 392.210938 364.613281 C 384.882812 362.074219 382.585938 352.914062 382.585938 352.914062 L 382.609375 352.914062 C 381.824219 350.636719 381.980469 348.125 383.335938 345.9375 C 377.726562 346.246094 369.085938 339.867188 371.886719 332.394531 C 363.789062 335.195312 358.105469 325.621094 359.742188 318.851562 C 356.003906 320.71875 349.304688 309.980469 354.914062 301.574219 C 361.039062 292.386719 379.832031 273.789062 399.21875 273.789062 C 422.894531 273.789062 463.925781 302.820312 470.78125 308.421875 C 477.632812 314.027344 516.3125 345.386719 516.3125 345.386719 Z M 516.3125 345.386719 " fill-opacity="1" fill-rule="nonzero"/><path fill="#000000" d="M 131.441406 179.167969 C 130.691406 176.753906 134.472656 175.730469 135.21875 178.128906 C 139.851562 193.03125 145.707031 207.511719 152.742188 221.441406 C 153.875 223.6875 150.496094 225.667969 149.359375 223.417969 C 142.171875 209.195312 136.171875 194.386719 131.441406 179.167969 Z M 168.730469 213.503906 C 166.136719 182.996094 170.328125 152.082031 180.902344 123.347656 C 183.917969 115.152344 187.46875 107.171875 191.5 99.429688 C 192.664062 97.199219 189.285156 95.214844 188.117188 97.453125 C 173.742188 125.0625 165.5625 155.75 164.238281 186.84375 C 163.859375 195.734375 164.058594 204.640625 164.8125 213.503906 C 165.023438 215.996094 168.945312 216.019531 168.730469 213.503906 Z M 158.324219 304.988281 C 158.734375 302.523438 154.960938 301.464844 154.546875 303.949219 C 149.789062 332.621094 141.058594 360.625 128.550781 386.871094 C 125.003906 394.308594 121.160156 401.601562 117.039062 408.738281 C 115.777344 410.925781 119.160156 412.898438 120.421875 410.714844 C 135.121094 385.25 146.25 357.726562 153.332031 329.191406 C 155.316406 321.191406 156.976562 313.117188 158.324219 304.988281 Z M 170.007812 251.34375 C 167.5 251.488281 167.484375 255.40625 170.007812 255.257812 C 176.246094 254.894531 182.429688 257.355469 186.777344 261.757812 C 183.925781 262.046875 181.179688 263.289062 179.105469 265.34375 C 177.3125 267.117188 180.082031 269.886719 181.878906 268.113281 C 184.207031 265.808594 187.601562 265.046875 190.707031 266.039062 C 192.316406 266.550781 193.828125 264.585938 192.921875 263.164062 C 188.046875 255.515625 179.089844 250.816406 170.007812 251.34375 Z M 344.53125 563.402344 C 356.082031 561.347656 367.140625 556.832031 378.878906 555.78125 C 381.367188 555.558594 381.390625 551.640625 378.878906 551.867188 C 366.765625 552.953125 355.402344 557.507812 343.492188 559.628906 C 341.011719 560.070312 342.0625 563.84375 344.53125 563.402344 Z M 329.683594 547.90625 C 343.992188 546 357.671875 541.230469 371.867188 538.773438 C 374.347656 538.347656 373.296875 534.574219 370.824219 535 C 356.980469 537.394531 343.632812 542.132812 329.683594 543.992188 C 328.625 544.132812 327.738281 544.792969 327.726562 545.949219 C 327.714844 546.898438 328.632812 548.046875 329.683594 547.90625 Z M 357.816406 521.648438 C 344.078125 524.183594 330.519531 528.171875 316.601562 529.671875 C 314.121094 529.941406 314.09375 533.859375 316.601562 533.585938 C 330.878906 532.046875 344.765625 528.023438 358.859375 525.421875 C 361.335938 524.96875 360.285156 521.191406 357.816406 521.648438 Z M 371.304688 579.535156 C 374.214844 578.917969 377.125 578.300781 380.03125 577.683594 C 381.035156 577.472656 381.710938 576.242188 381.398438 575.277344 C 381.058594 574.21875 380.066406 573.683594 378.992188 573.910156 C 376.082031 574.527344 373.171875 575.140625 370.265625 575.757812 C 369.261719 575.972656 368.585938 577.203125 368.898438 578.167969 C 369.238281 579.226562 370.230469 579.761719 371.304688 579.535156 Z M 165.320312 625.097656 C 167.78125 625.5625 168.839844 621.792969 166.359375 621.320312 C 157.359375 619.617188 148.226562 618.707031 139.0625 618.632812 C 136.542969 618.613281 136.539062 622.527344 139.0625 622.546875 C 147.878906 622.617188 156.65625 623.457031 165.320312 625.097656 Z M 149.394531 435.367188 C 163.113281 444.910156 171.144531 460.214844 178.421875 474.792969 C 179.546875 477.050781 182.925781 475.070312 181.804688 472.816406 C 174.1875 457.558594 165.707031 441.957031 151.371094 431.984375 C 149.296875 430.542969 147.335938 433.9375 149.394531 435.367188 Z M 183.894531 496.039062 C 189.015625 511.828125 191.242188 528.511719 192.691406 544.992188 C 194.273438 562.992188 194.75 581.085938 194.75 599.152344 C 194.75 608.191406 194.617188 617.230469 194.414062 626.265625 C 194.359375 628.789062 198.277344 628.785156 198.332031 626.265625 C 198.710938 609.34375 198.839844 592.410156 198.332031 575.488281 C 197.789062 557.410156 196.609375 539.289062 193.753906 521.414062 C 192.328125 512.488281 190.464844 503.605469 187.671875 495 C 186.898438 492.609375 183.113281 493.632812 183.894531 496.039062 Z M 154.191406 518.296875 C 162.347656 535.21875 171.511719 551.640625 181.632812 567.464844 C 182.988281 569.582031 186.378906 567.621094 185.015625 565.488281 C 174.894531 549.664062 165.730469 533.242188 157.574219 516.320312 C 156.480469 514.050781 153.101562 516.035156 154.191406 518.296875 Z M 455.851562 508.816406 C 444.457031 541.929688 430.027344 573.972656 412.828125 604.480469 C 395.726562 634.824219 375.917969 663.65625 353.667969 690.457031 C 341.140625 705.546875 327.847656 719.992188 313.855469 733.734375 C 312.054688 735.5 314.824219 738.269531 316.625 736.5 C 341.722656 711.855469 364.546875 684.921875 384.804688 656.167969 C 405.066406 627.402344 422.738281 596.808594 437.503906 564.875 C 445.804688 546.925781 453.195312 528.558594 459.628906 509.859375 C 460.453125 507.46875 456.667969 506.445312 455.851562 508.816406 Z M 326.226562 682.035156 C 326.507812 681.722656 326.628906 681.386719 326.6875 681.050781 C 326.800781 680.625 326.792969 680.152344 326.535156 679.660156 C 314.53125 656.777344 303.09375 633.527344 289.46875 611.542969 C 286.035156 605.996094 282.449219 600.53125 278.503906 595.332031 C 278.121094 594.828125 277.613281 594.582031 277.09375 594.523438 C 276.730469 594.359375 276.300781 594.308594 275.789062 594.511719 C 257.042969 601.921875 238.589844 610.0625 220.242188 618.40625 C 202.375 626.535156 184.613281 634.882812 166.742188 643 C 157.648438 647.132812 148.523438 651.199219 139.320312 655.085938 C 138.339844 655.5 138.144531 656.929688 138.617188 657.761719 C 139.195312 658.777344 140.328125 658.875 141.296875 658.464844 C 158.054688 651.394531 174.5625 643.746094 191.070312 636.117188 C 209.246094 627.71875 227.410156 619.289062 245.757812 611.273438 C 255.785156 606.886719 265.875 602.640625 276.050781 598.605469 C 283.070312 608.050781 289.109375 618.230469 294.902344 628.453125 C 301.578125 640.222656 307.871094 652.203125 314.101562 664.210938 C 316.882812 669.574219 319.65625 674.945312 322.457031 680.300781 C 319.796875 683.0625 316.804688 685.554688 313.921875 688.050781 C 307.742188 693.398438 301.4375 698.597656 295.089844 703.738281 C 276.863281 718.492188 258.214844 732.734375 239.214844 746.472656 C 227.0625 755.257812 214.753906 763.828125 202.234375 772.082031 C 200.140625 773.464844 202.101562 776.855469 204.214844 775.464844 C 226.109375 761.023438 247.390625 745.65625 268.242188 729.75 C 284.042969 717.699219 299.6875 705.390625 314.78125 692.464844 C 318.671875 689.132812 322.789062 685.84375 326.226562 682.035156 Z M 591.683594 543.636719 C 571.015625 530.996094 551.585938 516.277344 532.796875 501.019531 C 513.40625 485.277344 494.5625 468.734375 477.003906 450.960938 C 469.757812 443.625 462.640625 436.058594 456.339844 427.882812 C 471.070312 406.273438 486.859375 385.394531 503.6875 365.371094 C 508.5 359.644531 513.398438 353.988281 518.371094 348.398438 C 520.039062 346.519531 517.28125 343.742188 515.601562 345.628906 C 497.777344 365.660156 480.96875 386.59375 465.269531 408.328125 C 460.828125 414.472656 456.480469 420.6875 452.21875 426.960938 C 451.867188 427.476562 451.828125 428.421875 452.21875 428.9375 C 465.097656 445.921875 480.882812 460.808594 496.609375 475.109375 C 515.101562 491.917969 534.429688 507.859375 554.46875 522.800781 C 554.628906 529.957031 557.328125 536.84375 562.03125 542.238281 C 562.730469 543.035156 564.089844 542.949219 564.804688 542.238281 C 565.59375 541.445312 565.5 540.269531 564.804688 539.46875 C 561.480469 535.65625 559.378906 530.910156 558.65625 525.933594 C 568.742188 533.339844 579.03125 540.488281 589.707031 547.019531 C 591.863281 548.335938 593.835938 544.953125 591.683594 543.636719 Z M 533.773438 514.765625 C 532.015625 517.988281 529.996094 521.074219 528.347656 524.355469 C 526.640625 527.753906 525.5 531.265625 525.097656 535.054688 C 524.984375 536.105469 526.078125 537.011719 527.054688 537.011719 C 528.207031 537.011719 528.902344 536.109375 529.011719 535.054688 C 529.746094 528.203125 533.949219 522.613281 537.15625 516.742188 C 538.363281 514.527344 534.980469 512.550781 533.773438 514.765625 Z M 343.878906 297.628906 C 333.574219 304.246094 321.976562 308.738281 310.015625 311.285156 C 302.347656 312.921875 294.535156 313.691406 286.695312 313.675781 C 284.175781 313.667969 284.171875 317.582031 286.695312 317.589844 C 311.996094 317.648438 339.148438 309.464844 357.769531 291.742188 C 361.765625 287.941406 365.339844 283.605469 367.972656 278.75 C 369.171875 276.53125 365.792969 274.554688 364.589844 276.773438 C 359.867188 285.488281 352.132812 292.328125 343.878906 297.628906 Z M 252.417969 223.550781 C 255.585938 222.097656 256.339844 216.980469 254.109375 212.117188 C 251.875 207.25 247.5 204.484375 244.332031 205.9375 C 241.167969 207.390625 240.410156 212.511719 242.644531 217.375 C 244.875 222.238281 249.253906 225.003906 252.417969 223.550781 Z M 351.035156 203.671875 C 358.597656 200.203125 360.40625 187.972656 355.074219 176.351562 C 349.738281 164.734375 339.28125 158.125 331.71875 161.59375 C 324.15625 165.0625 322.347656 177.292969 327.683594 188.914062 C 333.015625 200.53125 343.472656 207.140625 351.035156 203.671875 Z M 305.679688 268.488281 C 305.679688 269.363281 306.503906 270.402344 307.46875 270.28125 C 313.707031 269.496094 319.472656 267.101562 324.425781 263.230469 C 325.1875 262.632812 325.050781 261.324219 324.425781 260.699219 C 323.671875 259.945312 322.65625 260.101562 321.890625 260.699219 C 317.769531 263.921875 312.664062 266.050781 307.46875 266.699219 C 306.511719 266.820312 305.679688 267.4375 305.679688 268.488281 Z M 280.765625 257.914062 C 291.601562 260.097656 302.988281 258.738281 312.96875 254.152344 C 311.570312 253.476562 310.191406 252.753906 308.835938 251.996094 C 300.277344 255.34375 290.824219 256.296875 281.71875 254.464844 C 279.464844 254.011719 278.503906 257.460938 280.765625 257.914062 Z M 357.300781 295.480469 C 355.65625 297.375 354.082031 299.335938 352.535156 301.3125 C 350.867188 303.441406 349.203125 305.566406 348.160156 308.082031 C 347.355469 310.015625 346.824219 312.144531 347.5625 314.171875 C 348.210938 315.957031 349.464844 317.515625 350.820312 318.816406 C 352.957031 320.871094 355.976562 322.941406 359.085938 323.164062 C 358.753906 326.515625 359.980469 329.945312 362.253906 332.445312 C 364.632812 335.066406 368.070312 336.515625 371.5625 336.90625 C 371.476562 340.203125 372.496094 343.433594 374.550781 346.089844 C 376.660156 348.816406 380.011719 351.011719 383.464844 350.859375 C 383.875 356.042969 385.5 361.230469 389.3125 364.953125 C 391.039062 366.640625 393.480469 367.640625 395.777344 368.25 C 398.507812 368.972656 401.414062 369.179688 404.179688 368.527344 C 406.632812 367.949219 405.59375 364.171875 403.136719 364.75 C 401.015625 365.25 398.773438 365.007812 396.6875 364.4375 C 395.722656 364.175781 394.78125 363.847656 393.90625 363.398438 C 393.019531 362.945312 392.511719 362.625 391.960938 362.0625 C 388.761719 358.789062 387.535156 354.332031 387.308594 349.875 C 397.941406 341.035156 409.269531 333.113281 420.765625 325.445312 C 422.851562 324.054688 420.894531 320.660156 418.789062 322.066406 C 407.195312 329.796875 395.792969 337.8125 385.050781 346.695312 C 384.742188 346.714844 384.433594 346.769531 384.136719 346.902344 C 384.351562 346.808594 383.832031 346.972656 383.785156 346.988281 C 383.671875 347.007812 383.617188 347.019531 383.589844 347.027344 C 383.546875 347.027344 383.5 347.03125 383.453125 347.035156 C 383.027344 347.042969 382.675781 347.023438 382.453125 346.96875 C 381.558594 346.757812 381.070312 346.554688 380.308594 346.101562 C 380.003906 345.917969 379.707031 345.71875 379.417969 345.503906 C 379.363281 345.460938 379.195312 345.324219 379.167969 345.300781 C 379.046875 345.199219 378.929688 345.09375 378.816406 344.988281 C 378.535156 344.730469 378.273438 344.457031 378.019531 344.175781 C 377.894531 344.035156 377.769531 343.890625 377.652344 343.742188 C 377.636719 343.722656 377.640625 343.726562 377.628906 343.714844 C 377.585938 343.65625 377.539062 343.597656 377.496094 343.535156 C 377.074219 342.941406 376.703125 342.3125 376.386719 341.65625 C 376.382812 341.648438 376.257812 341.371094 376.238281 341.335938 C 376.179688 341.191406 376.125 341.042969 376.070312 340.898438 C 375.945312 340.539062 375.832031 340.175781 375.738281 339.808594 C 375.640625 339.441406 375.570312 339.070312 375.503906 338.695312 C 375.492188 338.621094 375.488281 338.609375 375.480469 338.59375 C 375.480469 338.566406 375.480469 338.550781 375.476562 338.464844 C 375.464844 338.277344 375.445312 338.089844 375.433594 337.898438 C 375.417969 337.554688 375.417969 337.207031 375.433594 336.859375 C 375.441406 336.683594 375.453125 336.507812 375.46875 336.332031 C 375.835938 336.289062 376.203125 336.175781 376.542969 335.878906 C 387.242188 326.652344 397.863281 317.339844 408.546875 308.097656 C 410.457031 306.445312 407.675781 303.683594 405.777344 305.328125 C 395.09375 314.570312 384.46875 323.882812 373.773438 333.109375 C 373.746094 333.132812 373.742188 333.160156 373.71875 333.183594 C 373.597656 333.15625 373.484375 333.105469 373.355469 333.105469 C 370.332031 333.082031 367.292969 332.078125 365.164062 329.828125 C 363.214844 327.769531 362.433594 324.765625 363.257812 322.121094 C 363.257812 322.117188 363.257812 322.113281 363.257812 322.105469 C 374.300781 312.675781 384.742188 302.527344 396.472656 293.925781 C 398.484375 292.449219 396.53125 289.050781 394.492188 290.546875 C 382.527344 299.320312 371.851562 309.628906 360.589844 319.25 C 360.445312 319.253906 360.316406 319.226562 360.160156 319.265625 C 357.621094 319.855469 354.46875 317.042969 352.917969 315.367188 C 352.179688 314.570312 351.21875 313.441406 351.097656 312.335938 C 350.875 310.351562 352.484375 307.976562 353.539062 306.445312 C 358.570312 299.144531 364.933594 292.730469 371.519531 286.847656 C 373.40625 285.167969 370.628906 282.40625 368.75 284.082031 C 364.726562 287.671875 360.835938 291.402344 357.300781 295.480469 Z M 403.246094 359.765625 C 411.214844 355.917969 418.773438 351.289062 426.699219 347.347656 C 428.957031 346.226562 426.972656 342.847656 424.722656 343.96875 C 416.796875 347.90625 409.238281 352.535156 401.269531 356.386719 C 399 357.484375 400.984375 360.859375 403.246094 359.765625 Z M 403.246094 359.765625 " fill-opacity="1" fill-rule="nonzero"/></svg>